<svg xmlns="http://www.w3.org/2000/svg" width="512" height="256" viewBox="0 0 512 256" fill="none">
<path d="M63 178C90.6142 178 113 155.614 113 128C113 100.386 90.6142 78 63 78C35.3858 78 13 100.386 13 128C13 155.614 35.3858 178 63 178Z" fill="#00BEA8"/>
<path d="M67.8288 143.935L54.6511 126.27L71.2542 111.139C71.2542 111.139 73.6606 108.539 79.0698 108.35L96.7176 107.734C96.7176 107.734 75.9233 121.639 75.5647 124.568C75.2432 127.467 94.1956 147.703 94.1956 147.703L80.2688 148.189C70.678 148.524 67.8288 143.935 67.8288 143.935Z" fill="white"/>
<path d="M57.4028 118.169L59.4654 109.035L41.1272 109.675L33.1619 145.575L51.4618 144.936L53.8853 134.044L48.2827 126.493L57.4028 118.169Z" fill="white"/>
<path d="M162.946 137.808L154.528 141.421V161.742H139V135.263V97.6979L154.528 101.147V126.477L177.127 101.147H194.291L177.127 126.477L196.327 160.922L177.127 157.391L162.946 137.808ZM231.113 149.139C231.113 147.086 230.254 145.498 228.535 144.376C226.846 143.227 223.876 142.242 219.623 141.421C215.401 140.6 212.039 139.614 209.535 138.465C207.063 137.315 205.223 135.947 204.017 134.359C202.841 132.772 202.252 130.883 202.252 128.694C202.252 125.054 203.941 121.975 207.319 119.457C210.727 116.939 215.069 115.68 220.347 115.68C225.896 115.68 230.389 116.98 233.827 119.58C237.295 122.18 239.029 125.505 239.029 129.556H230.615C230.615 127.476 229.636 125.683 227.675 124.178C225.745 122.673 223.302 121.92 220.347 121.92C217.301 121.92 214.919 122.522 213.199 123.726C211.481 124.931 210.621 126.504 210.621 128.448C210.621 130.281 211.42 131.663 213.018 132.594C214.617 133.525 217.497 134.414 221.658 135.263C225.85 136.111 229.243 137.124 231.837 138.301C234.43 139.477 236.345 140.901 237.582 142.57C238.849 144.212 239.481 146.224 239.481 148.605C239.481 152.574 237.733 155.762 234.234 158.171C230.736 160.552 226.197 161.742 220.618 161.742C216.698 161.742 213.23 161.113 210.214 159.854C207.198 158.595 204.831 156.844 203.112 154.599C201.423 152.328 200.579 149.878 200.579 147.25H208.948C209.098 149.796 210.214 151.821 212.295 153.326C214.406 154.804 217.18 155.544 220.618 155.544C223.785 155.544 226.318 154.969 228.218 153.819C230.148 152.642 231.113 151.082 231.113 149.139ZM254.5 160.922V122.372L246.765 132.594V116.501H254.5H250.632C250.632 111.739 251.696 103.747 254.5 101.147C257.304 98.5464 265.477 97 270.604 97C272.534 97 274.449 97.2327 276.349 97.6979V111.821C274.931 111.574 277.947 111.821 276.349 111.821C273.635 111.821 266.563 104.212 265.085 105.662C263.607 107.086 262.869 109.138 262.869 111.821V116.501H273.318L279.877 130.5L265.085 123.726V161.742L254.5 160.922ZM303.31 134.277C295.86 132.334 290.432 129.953 287.025 127.134C283.647 124.287 281.958 120.784 281.958 116.624C281.958 111.916 284.025 108.03 288.155 104.965C292.317 101.872 297.715 100.325 304.35 100.325C308.874 100.325 312.899 101.119 316.428 102.707C319.986 104.294 322.731 106.484 324.662 109.275C326.621 112.067 327.601 115.119 327.601 118.43L318.6 124.178C318.6 120.565 317.875 113.996 315.342 111.944C312.81 109.864 310.365 109.275 305.752 109.275C301.469 109.275 296.72 107.551 294.307 109.275C294.307 111.697 292.996 112.642 292.996 115.68C292.996 118.116 291.865 121.003 294.127 122.7C296.419 124.369 300.293 125.902 305.752 127.298C311.241 128.694 315.523 130.24 318.6 131.937C321.705 133.607 323.997 135.564 325.475 137.808C326.983 140.052 327.737 142.693 327.737 145.731C327.737 150.576 325.656 154.462 321.495 157.391C317.332 160.292 311.769 161.742 304.802 161.742C300.278 161.742 296.057 160.963 292.136 159.403C288.215 157.815 285.185 155.653 283.044 152.916C280.933 150.179 279.877 147.072 279.877 143.597L294.307 139.368C294.307 142.981 291.352 147.675 294.307 149.755C297.263 151.835 300.836 152.916 305.752 152.916C310.336 152.916 313.171 152.15 315.614 150.453C318.057 148.756 319.006 148.742 319.006 145.813C319.006 142.885 317.875 140.627 315.614 139.04C313.351 137.425 309.25 135.837 303.31 134.277ZM380.883 139.368L384.462 116.624L398.712 116.501L384.462 160.922H377.677L365.78 127.257L354.2 160.922H347.415L333.211 116.501L347.415 115.68L350.48 138.926L362.569 116.501H369.309L380.883 139.368ZM437.479 160.922C436.997 160.045 436.605 158.486 436.303 156.241C432.413 159.909 427.768 161.742 422.37 161.742C417.545 161.742 413.579 160.511 410.473 158.048C407.397 155.557 405.86 152.41 405.86 148.605C405.86 143.98 407.789 140.394 411.65 137.849C415.54 135.276 420.998 133.99 428.025 133.99H436.167V130.5C436.167 127.845 435.293 125.738 433.544 124.178C431.795 122.59 427.001 123.726 423.592 123.726C420.607 123.726 425.613 122.358 423.592 123.726C421.571 125.095 418.299 128.557 418.299 130.5L406.855 128.817C406.855 126.6 407.714 124.465 409.433 122.413C411.182 120.333 413.535 118.69 416.49 117.486C419.475 116.282 422.747 115.68 426.306 115.68C431.946 115.68 436.363 116.966 439.56 119.539C442.756 122.084 444.416 125.601 444.536 130.09V150.535C444.536 154.613 445.109 157.856 446.255 160.264V160.922H437.479ZM423.592 155.133C426.216 155.133 428.703 154.517 431.055 153.285C433.408 152.054 435.112 150.453 436.167 148.482V139.368H429.608C419.354 139.368 414.228 142.091 414.228 147.538C414.228 149.919 415.102 151.78 416.852 153.121C418.601 154.462 420.847 155.133 423.592 155.133ZM499 139.204C499 145.964 497.296 151.41 493.889 155.544C490.481 159.676 485.867 161.742 480.046 161.742C474.105 161.742 469.431 160.032 466.023 156.611V178H456.758V117.486L465.299 116.501L465.707 121.427C469.114 117.596 473.849 115.68 479.911 115.68C485.791 115.68 490.435 117.691 493.843 121.715C497.281 125.738 499 131.335 499 138.506V139.204ZM490.632 138.342C490.632 133.333 489.41 133.401 487.058 130.5C484.705 127.599 481.615 126.477 477.513 126.477C472.447 126.477 468.557 135.29 466.023 139.368L469.942 148.482C472.445 152.533 474.889 154.599 480.046 154.599C484.056 154.599 488.279 148.687 490.632 145.813C493.014 142.912 490.632 144.035 490.632 138.342Z" fill="#00BEA8"/>
</svg>